<svg width="17" height="22" viewBox="0 0 17 22" fill="none" xmlns="http://www.w3.org/2000/svg">
<path d="M1.16664 22V19.96L9.71664 11.71C10.4766 10.99 11.0366 10.36 11.3966 9.82C11.7766 9.26 12.0266 8.75 12.1466 8.29C12.2866 7.81 12.3566 7.35 12.3566 6.91C12.3566 5.83 11.9766 4.98 11.2166 4.36C10.4566 3.74 9.34664 3.43 7.88664 3.43C6.76664 3.43 5.75664 3.62 4.85664 4C3.95664 4.36 3.17664 4.93 2.51664 5.71L0.476641 3.94C1.27664 2.92 2.34664 2.14 3.68664 1.6C5.04664 1.04 6.53664 0.76 8.15664 0.76C9.61664 0.76 10.8866 1 11.9666 1.48C13.0466 1.94 13.8766 2.61 14.4566 3.49C15.0566 4.37 15.3566 5.41 15.3566 6.61C15.3566 7.29 15.2666 7.96 15.0866 8.62C14.9066 9.28 14.5666 9.98 14.0666 10.72C13.5666 11.46 12.8466 12.29 11.9066 13.21L4.28664 20.56L3.56664 19.39H16.2566V22H1.16664Z" fill="white"/>
</svg>
