<svg width="16" height="22" viewBox="0 0 16 22" fill="none" xmlns="http://www.w3.org/2000/svg">
<path d="M7.86 21.24C6.38 21.24 4.94 21.01 3.54 20.55C2.16 20.09 1.03 19.47 0.15 18.69L1.53 16.32C2.23 16.98 3.14 17.52 4.26 17.94C5.38 18.36 6.58 18.57 7.86 18.57C9.42 18.57 10.63 18.24 11.49 17.58C12.37 16.9 12.81 15.99 12.81 14.85C12.81 13.75 12.39 12.87 11.55 12.21C10.73 11.53 9.42 11.19 7.62 11.19H5.94V9.09L12.18 1.41L12.6 2.61H1.11V-1.43051e-06H14.97V2.04L8.76 9.69L7.2 8.76H8.19C10.73 8.76 12.63 9.33 13.89 10.47C15.17 11.61 15.81 13.06 15.81 14.82C15.81 16 15.52 17.08 14.94 18.06C14.36 19.04 13.48 19.82 12.3 20.4C11.14 20.96 9.66 21.24 7.86 21.24Z" fill="white"/>
</svg>
